<svg width="287" height="72" viewBox="0 0 287 72" fill="none" xmlns="http://www.w3.org/2000/svg">
<rect x="0.5" y="0.5" width="286" height="71" rx="4.5" stroke="#8A38F5" stroke-dasharray="10 5"/>
<path d="M26.3994 51.9982H20V20.0002H26.3994V51.9982ZM78.7959 20.0002C87.6319 20.0002 94.7949 27.1632 94.7949 35.9992C94.7949 44.8352 87.6319 51.9982 78.7959 51.9982C72.8329 51.9981 67.6335 48.7349 64.8818 43.8976L69.3867 37.9084C70.2721 42.2952 74.1482 45.5987 78.7959 45.5988C84.0975 45.5988 88.3955 41.3008 88.3955 35.9992C88.3955 30.6976 84.0975 26.3996 78.7959 26.3996C75.4913 26.3997 72.5764 28.0695 70.8496 30.6115L70.8516 30.6134L70.8262 30.6466C70.7878 30.7036 70.751 30.7616 70.7139 30.8195L63.4375 40.4943C63.4358 40.4885 63.4343 40.4826 63.4326 40.4767L59.957 45.0988C57.0691 49.2672 52.2529 51.9982 46.7979 51.9982C37.9619 51.9982 30.7988 44.8352 30.7988 35.9992C30.7988 27.1632 37.9619 20.0002 46.7979 20.0002C49.3028 20.0002 51.6735 20.5753 53.7842 21.6017L49.8115 26.8849C48.8635 26.5716 47.8509 26.3996 46.7979 26.3996C41.4963 26.3996 37.1982 30.6976 37.1982 35.9992C37.1982 41.3008 41.4963 45.5988 46.7979 45.5988C49.6577 45.5988 52.224 44.3468 53.9824 42.3625L53.9854 42.3654L54.0098 42.3322C54.273 42.0326 54.5184 41.7168 54.7432 41.3859L54.7422 41.3849L54.7666 41.3507C54.8046 41.2943 54.8401 41.2362 54.877 41.1789L62.1543 31.5031C62.1561 31.5093 62.1583 31.5154 62.1602 31.5216L65.624 26.9162C68.5106 22.7381 73.3334 20.0002 78.7959 20.0002ZM105.594 51.9982H99.1943V20.0002H105.594V51.9982Z" fill="#FAFAFA"/>
<path d="M105.693 21.7255C107.574 20.6317 109.758 20.0058 112.093 20.0057C119.183 20.0059 124.89 25.789 124.891 32.8739V51.9999H118.491V35.0428H118.492V32.8739C118.492 29.2785 115.604 26.4033 112.093 26.4032C108.581 26.4032 105.694 29.2785 105.693 32.8739V51.9999H99.2949V20.0048H105.693V21.7255Z" fill="#FAFAFA"/>
<path d="M141.714 24.4629H146.665V25.3074H142.717V27.7036H146.179V28.5481H142.717V32H141.714V24.4629ZM149.296 24.4629H150.298V32H149.296V24.4629ZM153.453 24.4629H154.519L158.488 30.5749H158.509V24.4629H159.459V32H158.361L154.424 25.9513H154.403V32H153.453V24.4629ZM163.858 28.8859H166.412L165.156 25.3707H165.135L163.858 28.8859ZM164.607 24.4629H165.715L168.661 32H167.552L166.729 29.7304H163.541L162.696 32H161.672L164.607 24.4629ZM170.872 24.4629H171.938L175.907 30.5749H175.928V24.4629H176.878V32H175.78L171.843 25.9513H171.822V32H170.872V24.4629ZM185.277 26.7325C185.165 26.1976 184.915 25.7965 184.528 25.5291C184.148 25.2616 183.694 25.1279 183.166 25.1279C182.716 25.1279 182.329 25.2124 182.005 25.3813C181.688 25.5502 181.424 25.7789 181.213 26.0674C181.009 26.3489 180.858 26.6726 180.759 27.0386C180.661 27.4045 180.611 27.7846 180.611 28.1787C180.611 28.6079 180.661 29.0161 180.759 29.4032C180.858 29.7832 181.009 30.1175 181.213 30.406C181.424 30.6875 181.692 30.9127 182.015 31.0816C182.339 31.2505 182.726 31.335 183.177 31.335C183.507 31.335 183.799 31.2822 184.053 31.1766C184.313 31.064 184.535 30.9127 184.718 30.7227C184.908 30.5257 185.056 30.2934 185.161 30.026C185.267 29.7586 185.33 29.47 185.351 29.1604H186.354C186.256 30.1104 185.928 30.8494 185.372 31.3772C184.816 31.905 184.056 32.1689 183.092 32.1689C182.508 32.1689 181.998 32.0704 181.562 31.8733C181.125 31.6692 180.763 31.3913 180.474 31.0394C180.186 30.6875 179.968 30.2723 179.82 29.7938C179.679 29.3152 179.609 28.8015 179.609 28.2526C179.609 27.7036 179.686 27.1899 179.841 26.7114C179.996 26.2258 180.221 25.8035 180.516 25.4446C180.819 25.0857 181.192 24.8042 181.635 24.6001C182.086 24.389 182.6 24.2834 183.177 24.2834C183.571 24.2834 183.944 24.3362 184.296 24.4418C184.647 24.5473 184.961 24.7022 185.235 24.9062C185.51 25.1103 185.738 25.3672 185.921 25.6768C186.104 25.9795 186.224 26.3313 186.28 26.7325H185.277ZM189.074 24.4629H194.278V25.3074H190.077V27.7036H193.993V28.5481H190.077V31.1555H194.31V32H189.074V24.4629Z" fill="#E0A776"/>
<path d="M203.501 27.3658C203.606 27.2955 203.719 27.218 203.839 27.1336C203.958 27.0492 204.067 26.9541 204.166 26.8486C204.264 26.743 204.345 26.6269 204.409 26.5002C204.472 26.3665 204.504 26.2187 204.504 26.0569C204.504 25.8387 204.426 25.6522 204.271 25.4974C204.117 25.3355 203.905 25.2546 203.638 25.2546C203.427 25.2546 203.23 25.3215 203.047 25.4552C202.864 25.5818 202.772 25.7824 202.772 26.0569C202.772 26.1695 202.793 26.2821 202.836 26.3947C202.885 26.5073 202.945 26.6199 203.015 26.7325C203.086 26.838 203.163 26.9436 203.247 27.0492C203.332 27.1547 203.416 27.2603 203.501 27.3658ZM205.433 31.0605C205.207 31.4124 204.898 31.6763 204.504 31.8522C204.117 32.0281 203.715 32.1161 203.3 32.1161C202.793 32.1161 202.385 32.0387 202.076 31.8839C201.766 31.7291 201.527 31.5426 201.358 31.3244C201.189 31.1062 201.076 30.881 201.02 30.6488C200.971 30.4166 200.946 30.223 200.946 30.0682C200.946 29.7726 200.992 29.5123 201.083 29.2871C201.182 29.0619 201.309 28.8613 201.463 28.6854C201.625 28.5024 201.812 28.3405 202.023 28.1998C202.241 28.052 202.47 27.9148 202.709 27.7881C202.603 27.6403 202.501 27.4995 202.403 27.3658C202.304 27.2321 202.213 27.0984 202.128 26.9647C202.051 26.824 201.988 26.6797 201.938 26.5319C201.896 26.3771 201.875 26.2047 201.875 26.0146C201.875 25.8106 201.91 25.617 201.981 25.4341C202.058 25.244 202.167 25.0787 202.308 24.9379C202.456 24.7901 202.635 24.674 202.846 24.5896C203.057 24.5051 203.3 24.4629 203.575 24.4629C203.807 24.4629 204.032 24.4946 204.25 24.5579C204.475 24.6212 204.672 24.7198 204.841 24.8535C205.01 24.9801 205.144 25.142 205.243 25.339C205.348 25.5291 205.401 25.7507 205.401 26.0041C205.401 26.2293 205.362 26.4404 205.285 26.6375C205.207 26.8275 205.102 27.0034 204.968 27.1653C204.834 27.3271 204.683 27.4749 204.514 27.6086C204.345 27.7353 204.169 27.8514 203.986 27.957L205.348 29.6143C205.489 29.2202 205.57 28.8296 205.591 28.4426H206.446C206.425 28.6678 206.4 28.8613 206.372 29.0232C206.351 29.178 206.319 29.3222 206.277 29.456C206.242 29.5897 206.196 29.7234 206.14 29.8571C206.083 29.9838 206.017 30.1316 205.939 30.3005L207.407 32H206.235L205.433 31.0605ZM203.205 28.3581C203.029 28.4566 202.86 28.5587 202.698 28.6642C202.544 28.7698 202.406 28.8894 202.287 29.0232C202.167 29.1569 202.072 29.3082 202.002 29.4771C201.931 29.6389 201.896 29.8325 201.896 30.0577C201.896 30.2477 201.935 30.4236 202.012 30.5855C202.097 30.7403 202.206 30.874 202.34 30.9866C202.473 31.0922 202.625 31.1766 202.793 31.24C202.969 31.3033 203.149 31.335 203.332 31.335C203.677 31.335 203.983 31.254 204.25 31.0922C204.525 30.9303 204.753 30.7121 204.936 30.4377L203.205 28.3581ZM220.773 32H219.728L218.007 25.6663H217.986L216.244 32H215.199L213.267 24.4629H214.291L215.769 30.7333H215.79L217.479 24.4629H218.567L220.234 30.7333H220.256L221.786 24.4629H222.789L220.773 32ZM225.215 24.4629H230.419V25.3074H226.217V27.7036H230.134V28.5481H226.217V31.1555H230.451V32H225.215V24.4629ZM234.444 28.8859H236.999L235.743 25.3707H235.722L234.444 28.8859ZM235.194 24.4629H236.302L239.247 32H238.139L237.316 29.7304H234.128L233.283 32H232.259L235.194 24.4629ZM241.469 24.4629H242.472V31.1555H246.462V32H241.469V24.4629ZM249.553 25.3074H247.041V24.4629H253.069V25.3074H250.556V32H249.553V25.3074ZM255.383 24.4629H256.385V27.7036H260.355V24.4629H261.357V32H260.355V28.5481H256.385V32H255.383V24.4629ZM141.735 40.4629H143.107L145.483 46.7966L147.868 40.4629H149.241V48H148.291V41.7296H148.269L145.915 48H145.06L142.706 41.7296H142.685V48H141.735V40.4629ZM153.686 44.8859H156.24L154.984 41.3707H154.963L153.686 44.8859ZM154.435 40.4629H155.544L158.489 48H157.38L156.557 45.7304H153.369L152.525 48H151.501L154.435 40.4629ZM160.7 40.4629H161.766L165.735 46.5749H165.756V40.4629H166.706V48H165.608L161.671 41.9513H161.65V48H160.7V40.4629ZM171.105 44.8859H173.659L172.403 41.3707H172.382L171.105 44.8859ZM171.854 40.4629H172.963L175.908 48H174.799L173.976 45.7304H170.788L169.943 48H168.92L171.854 40.4629ZM183.766 47.0605C183.471 47.4546 183.105 47.7396 182.668 47.9156C182.232 48.0844 181.792 48.1689 181.349 48.1689C180.786 48.1689 180.283 48.0669 179.839 47.8628C179.396 47.6516 179.019 47.3701 178.71 47.0183C178.4 46.6664 178.164 46.2617 178.002 45.8043C177.841 45.3469 177.76 44.8719 177.76 44.3792C177.76 43.8303 177.834 43.3095 177.981 42.8169C178.136 42.3173 178.361 41.8809 178.657 41.5079C178.96 41.135 179.333 40.8394 179.776 40.6212C180.226 40.396 180.751 40.2834 181.349 40.2834C181.757 40.2834 182.14 40.3327 182.499 40.4312C182.865 40.5227 183.189 40.6705 183.471 40.8746C183.759 41.0787 183.998 41.339 184.188 41.6557C184.385 41.9654 184.519 42.3419 184.59 42.7852H183.587C183.537 42.4967 183.446 42.2504 183.312 42.0463C183.179 41.8352 183.013 41.6628 182.816 41.5291C182.619 41.3953 182.394 41.2968 182.14 41.2335C181.894 41.1631 181.63 41.1279 181.349 41.1279C180.891 41.1279 180.497 41.2194 180.166 41.4024C179.843 41.5854 179.575 41.8282 179.364 42.1308C179.16 42.4263 179.009 42.7677 178.91 43.1547C178.812 43.5347 178.762 43.9253 178.762 44.3264C178.762 44.7205 178.819 45.1006 178.931 45.4665C179.044 45.8254 179.209 46.1456 179.428 46.4271C179.646 46.7016 179.913 46.9233 180.23 47.0922C180.554 47.254 180.927 47.335 181.349 47.335C181.743 47.335 182.091 47.2716 182.394 47.1449C182.696 47.0183 182.95 46.8459 183.154 46.6277C183.365 46.4025 183.523 46.1421 183.629 45.8465C183.734 45.5439 183.78 45.2202 183.766 44.8754H181.359V44.0309H184.663V48H184.03L183.766 47.0605ZM187.617 40.4629H192.821V41.3074H188.62V43.7036H192.536V44.5481H188.62V47.1555H192.853V48H187.617V40.4629ZM195.569 40.4629H196.941L199.317 46.7966L201.702 40.4629H203.075V48H202.125V41.7296H202.103L199.749 48H198.894L196.54 41.7296H196.519V48H195.569V40.4629ZM206.221 40.4629H211.426V41.3074H207.224V43.7036H211.141V44.5481H207.224V47.1555H211.457V48H206.221V40.4629ZM214.142 40.4629H215.208L219.177 46.5749H219.198V40.4629H220.148V48H219.051L215.113 41.9513H215.092V48H214.142V40.4629ZM224.959 41.3074H222.446V40.4629H228.474V41.3074H225.961V48H224.959V41.3074Z" fill="#FAFAFA"/>
</svg>
